<?xml version="1.0" standalone="no"?>
<!DOCTYPE svg PUBLIC "-//W3C//DTD SVG 20010904//EN"
 "http://www.w3.org/TR/2001/REC-SVG-20010904/DTD/svg10.dtd">
<svg version="1.0" xmlns="http://www.w3.org/2000/svg"
 width="1536.000000pt" height="1024.000000pt" viewBox="0 0 1536.000000 1024.000000"
 preserveAspectRatio="xMidYMid meet">

<g transform="translate(0.000000,1024.000000) scale(0.100000,-0.100000)"
fill="#000000" stroke="none">
<path d="M7031 9750 c-1092 -41 -1925 -147 -2666 -340 -720 -186 -991 -348
-1035 -617 -14 -83 -13 -4689 0 -4824 21 -206 80 -399 190 -624 320 -655 1036
-1384 1950 -1987 376 -247 699 -437 1083 -633 367 -187 613 -294 892 -387 176
-58 179 -58 360 3 579 196 1470 668 2140 1134 693 481 1291 1063 1630 1585
180 279 315 603 350 845 4 28 7 1147 7 2488 l-1 2439 -30 63 c-87 187 -317
320 -806 465 -689 204 -1448 318 -2540 380 -241 14 -1244 20 -1524 10z m1079
-170 c884 -26 1610 -97 2265 -220 153 -29 468 -103 576 -135 447 -134 672
-241 766 -363 68 -90 64 103 61 -2533 l-3 -2384 -32 -115 c-92 -335 -267 -649
-557 -1000 -167 -203 -570 -588 -851 -816 -593 -479 -1447 -1000 -2153 -1313
-327 -145 -504 -200 -607 -186 -123 15 -496 165 -845 340 -553 276 -1206 680
-1619 1000 -166 129 -272 214 -341 274 -566 496 -878 864 -1093 1288 -84 166
-136 306 -170 457 l-22 101 0 2385 0 2385 27 58 c66 140 206 227 557 343 621
205 1543 356 2471 404 107 6 207 12 222 15 15 2 177 7 360 11 183 4 335 8 337
10 8 7 309 4 651 -6z"/>
<path d="M7145 9469 c-936 -26 -1585 -92 -2270 -228 -350 -70 -669 -160 -869
-246 -243 -104 -358 -206 -406 -363 -20 -63 -20 -101 -20 -2316 0 -1459 4
-2276 10 -2321 43 -294 188 -620 413 -925 217 -295 577 -652 996 -989 439
-354 1072 -755 1666 -1056 474 -239 785 -354 960 -355 259 0 1031 360 1830
853 545 336 998 690 1395 1087 212 212 361 388 485 575 201 302 310 565 345
835 7 60 10 752 8 2345 l-3 2260 -23 57 c-31 76 -104 154 -200 216 -300 192
-965 364 -1802 466 -167 21 -637 63 -780 71 -63 3 -135 8 -160 10 -231 21
-1179 36 -1575 24z m133 -241 c18 -18 14 -56 -7 -67 -10 -6 -91 -11 -180 -12
-161 -1 -191 5 -191 35 1 33 21 41 112 47 172 10 253 10 266 -3z m560 3 c8 -5
12 -21 10 -37 l-3 -29 -187 -3 -188 -2 -6 25 c-13 51 3 55 190 55 94 0 177 -4
184 -9z m570 -14 c16 -13 15 -42 -3 -61 -13 -12 -41 -14 -178 -9 -89 3 -170
10 -179 15 -22 11 -23 42 -2 63 15 14 36 15 183 9 91 -3 172 -11 179 -17z
m462 -13 c116 -7 130 -10 130 -34 0 -47 -7 -50 -109 -49 -171 2 -281 13 -291
29 -14 22 -12 36 7 55 14 14 29 16 92 11 42 -3 119 -8 171 -12z m-2151 -15
c11 -19 10 -24 -6 -40 -15 -15 -44 -20 -183 -27 -99 -6 -172 -6 -182 0 -11 5
-18 20 -18 38 0 41 25 46 245 48 123 2 131 1 144 -19z m-561 -39 c4 -46 -8
-51 -159 -65 -209 -21 -217 -20 -225 11 -11 43 13 56 128 66 57 5 108 11 113
13 6 2 39 3 75 2 61 -2 65 -3 68 -27z m3242 20 c156 -13 160 -14 160 -49 0
-16 -6 -33 -13 -39 -16 -13 -344 13 -364 30 -16 13 -17 40 -1 56 15 15 66 15
218 2z m-3800 -60 c10 -19 -1 -60 -16 -60 -3 0 -81 -12 -175 -26 -133 -20
-173 -23 -185 -14 -17 15 -18 54 -1 68 15 13 242 50 314 51 43 1 54 -3 63 -19z
m4340 4 c160 -21 180 -28 180 -64 0 -48 -20 -50 -190 -24 -180 28 -175 27
-189 53 -8 15 -7 23 5 35 19 20 51 20 194 0z m-4908 -81 c21 -19 23 -36 5 -52
-24 -19 -350 -81 -364 -69 -17 14 -17 53 1 67 14 12 271 69 315 70 14 1 33 -6
43 -16z m5481 -20 c168 -34 190 -48 154 -97 -13 -18 -21 -17 -178 14 -90 18
-172 37 -181 42 -22 11 -23 41 -2 63 18 17 19 17 207 -22z m-6023 -134 c0 -14
-21 -24 -102 -49 -57 -17 -131 -41 -166 -53 -47 -17 -66 -19 -80 -11 -24 15
-26 47 -5 66 18 16 156 64 263 91 52 14 56 14 73 -5 9 -11 17 -29 17 -39z
m6561 5 c74 -25 139 -50 146 -56 19 -15 16 -51 -5 -64 -14 -9 -50 -1 -177 41
-87 29 -162 60 -166 68 -12 20 18 57 45 57 13 0 84 -21 157 -46z m-7120 -184
c26 -14 24 -42 -6 -86 -34 -50 -45 -95 -45 -187 0 -89 -11 -117 -43 -117 -41
0 -47 17 -47 140 0 104 3 121 25 166 14 27 39 59 57 72 38 26 34 25 59 12z
m7501 -27 c50 -54 61 -90 66 -214 5 -129 -3 -159 -43 -159 -40 0 -53 33 -54
148 -2 109 -10 144 -43 179 -15 16 -19 29 -14 47 9 36 54 35 88 -1z m-3857
-1158 l0 -870 -187 -3 -188 -2 0 -1250 0 -1250 478 0 477 0 0 1247 0 1248
-202 5 -202 5 -2 870 -3 870 1357 2 1357 1 0 -874 0 -875 -195 3 -195 3 0
-1723 0 -1722 -67 -63 c-38 -35 -122 -113 -189 -173 -66 -60 -186 -168 -265
-240 -225 -205 -459 -413 -513 -455 l-48 -39 -1327 2 -1327 3 -125 110 c-166
146 -397 354 -489 440 -42 38 -157 146 -258 238 l-182 169 0 1724 0 1724 -230
0 -230 0 0 874 0 875 1378 -2 1377 -2 0 -870z m-3705 606 c6 -11 10 -90 10
-186 0 -96 -4 -175 -10 -186 -12 -21 -50 -25 -68 -7 -13 13 -18 379 -5 391 14
15 63 7 73 -12z m7614 -3 c13 -18 16 -54 16 -186 0 -93 -4 -172 -10 -183 -13
-23 -47 -25 -72 -2 -16 14 -18 34 -18 179 0 89 4 174 10 188 12 33 53 35 74 4z
m0 -574 c13 -13 16 -46 16 -203 0 -173 -2 -189 -19 -205 -11 -10 -28 -16 -38
-14 -37 7 -44 44 -41 231 3 164 5 180 22 193 25 18 41 18 60 -2z m-7616 -6 c8
-8 12 -67 12 -199 0 -157 -3 -190 -16 -203 -8 -9 -23 -16 -33 -16 -38 0 -41
18 -41 215 0 200 3 215 45 215 12 0 26 -5 33 -12z m0 -610 c8 -8 12 -64 12
-184 0 -144 -3 -175 -16 -188 -18 -19 -28 -20 -55 -6 -18 10 -19 23 -19 188 0
187 3 202 45 202 12 0 26 -5 33 -12z m7620 0 c8 -8 12 -65 12 -188 0 -162 -2
-178 -19 -194 -25 -23 -52 -17 -69 14 -14 28 -14 345 1 368 10 15 59 16 75 0z
m-7618 -597 c6 -12 10 -92 10 -191 0 -177 -6 -210 -40 -210 -45 0 -50 20 -50
214 0 128 4 186 12 194 18 18 56 14 68 -7z m7620 0 c6 -12 10 -93 10 -195 0
-185 -5 -206 -49 -206 -40 0 -46 26 -49 199 -4 192 2 221 47 221 20 0 34 -7
41 -19z m-7626 -613 c13 -18 16 -55 16 -195 0 -181 -5 -203 -49 -203 -37 0
-41 19 -41 204 0 153 2 182 17 198 21 24 39 23 57 -4z m7616 2 c18 -18 20 -33
20 -188 0 -135 -3 -172 -16 -190 -20 -29 -50 -28 -70 3 -13 20 -15 51 -12 195
3 156 5 173 22 186 26 18 32 18 56 -6z m4 -582 c24 -34 23 -373 -1 -400 -9
-10 -24 -18 -33 -18 -39 0 -45 27 -48 202 -4 191 -1 215 31 228 32 13 34 12
51 -12z m-7620 -4 c13 -13 16 -45 16 -199 0 -154 -3 -186 -16 -199 -18 -19
-45 -21 -62 -4 -17 17 -17 389 0 406 17 17 44 15 62 -4z m-6 -580 c21 -15 22
-20 22 -213 0 -140 -3 -200 -12 -209 -18 -18 -56 -14 -68 7 -6 12 -10 97 -10
207 0 160 2 190 17 206 20 22 23 22 51 2z m7624 -11 c16 -14 18 -34 18 -197 0
-148 -3 -186 -16 -204 -17 -25 -46 -29 -63 -8 -19 23 -20 388 -2 409 17 22 39
22 63 0z m-7598 -605 c7 -13 19 -45 25 -73 7 -27 31 -97 53 -154 38 -97 40
-107 27 -130 -11 -19 -23 -26 -44 -26 -38 0 -61 40 -115 201 -46 139 -48 156
-20 184 26 26 56 25 74 -2z m7574 6 c39 -27 25 -99 -55 -281 -47 -108 -69
-131 -102 -113 -35 18 -34 46 3 127 19 43 46 118 60 168 21 77 43 115 66 115
3 0 16 -7 28 -16z m-7335 -551 c17 -25 62 -87 99 -137 37 -50 68 -101 68 -113
0 -13 -11 -29 -25 -39 -22 -15 -27 -15 -48 -1 -12 8 -62 70 -110 137 -90 127
-106 168 -69 189 33 19 52 11 85 -36z m7111 21 c9 -8 16 -19 16 -23 0 -22
-162 -243 -209 -285 -17 -16 -25 -17 -46 -8 -37 17 -43 57 -13 90 14 15 51 63
83 107 99 137 130 159 169 119z m-6691 -532 c115 -116 132 -143 105 -170 -30
-30 -60 -13 -174 100 -63 61 -117 120 -120 131 -7 23 22 57 50 57 14 0 63 -42
139 -118z m6341 97 c13 -19 13 -26 1 -48 -21 -42 -231 -241 -254 -241 -21 0
-51 35 -51 60 0 24 241 249 267 250 12 0 29 -10 37 -21z m-5905 -480 c77 -66
141 -127 141 -135 0 -20 -36 -54 -57 -54 -34 0 -293 222 -293 251 0 22 34 59
54 59 7 0 77 -54 155 -121z m5488 85 l17 -27 -59 -55 c-111 -104 -218 -182
-247 -182 -26 0 -48 23 -48 49 0 19 273 241 297 241 13 0 30 -11 40 -26z
m-5057 -410 c123 -92 170 -133 170 -146 0 -5 -11 -20 -25 -34 l-25 -25 -37 20
c-21 11 -90 57 -153 103 -121 88 -138 112 -104 149 9 10 27 19 38 19 12 0 73
-39 136 -86z m4612 69 c40 -36 24 -54 -206 -212 -49 -33 -93 -61 -98 -61 -13
0 -48 39 -48 53 0 8 58 57 129 110 71 53 134 104 141 112 16 20 59 19 82 -2z
m-4108 -408 c80 -53 148 -100 151 -105 8 -13 -12 -47 -35 -60 -25 -13 -62 5
-216 107 -117 77 -127 90 -104 134 19 35 56 21 204 -76z m3633 69 c11 -18 14
-31 7 -41 -15 -24 -286 -193 -310 -193 -26 0 -57 33 -52 55 4 22 286 205 315
205 13 0 30 -11 40 -26z m-3117 -377 c74 -41 139 -82 144 -90 14 -21 -18 -67
-46 -67 -21 0 -251 120 -310 162 -33 23 -36 50 -8 78 25 25 33 22 220 -83z
m2624 70 c20 -27 20 -27 1 -46 -11 -11 -88 -56 -172 -101 -161 -86 -185 -92
-203 -44 -5 13 -7 30 -5 37 3 7 45 34 93 59 48 26 116 66 152 88 74 46 104 47
134 7z m-2114 -325 c162 -81 182 -99 145 -136 -27 -26 -53 -19 -195 50 -142
69 -170 87 -170 112 0 21 30 52 49 52 9 0 86 -35 171 -78z m1582 61 c26 -23
22 -49 -12 -73 -48 -34 -283 -140 -311 -140 -32 0 -52 21 -47 52 2 19 32 37
158 100 85 42 164 77 174 77 11 1 28 -6 38 -16z m-508 -229 c21 -21 20 -47 -3
-68 -10 -9 -78 -40 -151 -68 -146 -56 -165 -56 -165 1 0 38 15 47 170 110 112
45 127 48 149 25z m-611 -37 c133 -50 167 -70 167 -97 0 -24 -26 -50 -51 -50
-24 0 -229 81 -264 104 -14 9 -25 24 -25 33 0 20 28 53 46 53 7 0 64 -20 127
-43z"/>
<path d="M4978 7520 l-3 -730 223 0 222 0 0 -1778 0 -1778 142 -130 c78 -71
176 -160 218 -199 41 -38 142 -131 225 -205 82 -74 176 -160 210 -191 33 -30
82 -74 109 -97 l49 -42 1291 0 1292 0 159 141 c88 78 307 274 486 435 l326
292 -5 1776 -5 1776 207 0 206 0 0 730 0 730 -1220 0 -1220 0 0 -730 0 -730
205 0 205 0 0 -1395 0 -1395 -625 0 -625 0 0 1395 0 1395 190 0 190 0 0 730 0
730 -1225 0 -1225 0 -2 -730z m2282 5 l0 -555 -195 0 -195 0 0 -1565 0 -1565
801 0 802 0 -7 38 c-3 20 -6 724 -6 1565 l0 1527 -200 0 -200 0 0 555 0 555
1045 0 1045 0 0 -555 0 -555 -205 0 -205 0 0 -1843 0 -1844 -112 -101 c-62
-55 -250 -224 -418 -376 l-305 -275 -1235 0 -1235 -1 -66 58 c-128 110 -236
207 -501 450 l-268 245 -1 1826 c-1 1004 -1 1834 0 1844 2 16 -14 17 -223 17
l-226 0 0 555 0 555 1055 0 1055 0 0 -555z"/>
</g>
</svg>
