<?xml version="1.0" standalone="no"?>
<!DOCTYPE svg PUBLIC "-//W3C//DTD SVG 20010904//EN"
 "http://www.w3.org/TR/2001/REC-SVG-20010904/DTD/svg10.dtd">
<svg version="1.0" xmlns="http://www.w3.org/2000/svg"
 width="1536.000000pt" height="1024.000000pt" viewBox="0 0 1536.000000 1024.000000"
 preserveAspectRatio="xMidYMid meet">

<g transform="translate(0.000000,1024.000000) scale(0.100000,-0.100000)"
fill="#000000" stroke="none">
<path d="M7678 8643 c28 -2 76 -2 105 0 28 2 5 3 -53 3 -58 0 -81 -1 -52 -3z"/>
<path d="M7848 8643 c7 -3 16 -2 19 1 4 3 -2 6 -13 5 -11 0 -14 -3 -6 -6z"/>
<path d="M7383 8633 c32 -2 81 -2 110 0 29 2 3 3 -58 3 -60 0 -84 -1 -52 -3z"/>
<path d="M7978 8633 c29 -2 74 -2 100 0 26 2 2 3 -53 3 -55 0 -76 -1 -47 -3z"/>
<path d="M7228 8623 c18 -2 45 -2 60 0 15 2 0 4 -33 4 -33 0 -45 -2 -27 -4z"/>
<path d="M8173 8623 c26 -2 67 -2 90 0 23 2 2 3 -48 3 -49 0 -68 -1 -42 -3z"/>
<path d="M7040 8610 c-55 -7 -55 -7 -10 -7 25 -1 70 2 100 7 54 7 54 7 10 7
-25 0 -70 -3 -100 -7z"/>
<path d="M8337 8613 c18 -2 50 -2 70 0 21 2 7 4 -32 4 -38 0 -55 -2 -38 -4z"/>
<path d="M8495 8600 c28 -5 68 -8 90 -8 35 1 33 2 -15 8 -30 5 -71 8 -90 8
-28 -1 -25 -2 15 -8z"/>
<path d="M6933 8593 c9 -2 23 -2 30 0 6 3 -1 5 -18 5 -16 0 -22 -2 -12 -5z"/>
<path d="M6858 8583 c12 -2 30 -2 40 0 9 3 -1 5 -23 4 -22 0 -30 -2 -17 -4z"/>
<path d="M8643 8583 c9 -2 25 -2 35 0 9 3 1 5 -18 5 -19 0 -27 -2 -17 -5z"/>
<path d="M6768 8573 c12 -2 30 -2 40 0 9 3 -1 5 -23 4 -22 0 -30 -2 -17 -4z"/>
<path d="M8723 8573 c9 -2 25 -2 35 0 9 3 1 5 -18 5 -19 0 -27 -2 -17 -5z"/>
<path d="M6610 8555 c-41 -7 -61 -13 -45 -13 17 0 64 5 105 12 41 8 62 13 45
13 -16 0 -64 -5 -105 -12z"/>
<path d="M8793 8563 c9 -2 25 -2 35 0 9 3 1 5 -18 5 -19 0 -27 -2 -17 -5z"/>
<path d="M8873 8553 c9 -2 25 -2 35 0 9 3 1 5 -18 5 -19 0 -27 -2 -17 -5z"/>
<path d="M8943 8543 c9 -2 23 -2 30 0 6 3 -1 5 -18 5 -16 0 -22 -2 -12 -5z"/>
<path d="M6498 8533 c6 -2 18 -2 25 0 6 3 1 5 -13 5 -14 0 -19 -2 -12 -5z"/>
<path d="M9003 8533 c9 -2 25 -2 35 0 9 3 1 5 -18 5 -19 0 -27 -2 -17 -5z"/>
<path d="M6443 8523 c9 -2 23 -2 30 0 6 3 -1 5 -18 5 -16 0 -22 -2 -12 -5z"/>
<path d="M9085 8520 c17 -4 39 -8 50 -8 16 0 15 2 -5 8 -14 4 -36 8 -50 8 -22
0 -22 -1 5 -8z"/>
<path d="M6383 8513 c9 -2 23 -2 30 0 6 3 -1 5 -18 5 -16 0 -22 -2 -12 -5z"/>
<path d="M6323 8503 c9 -2 23 -2 30 0 6 3 -1 5 -18 5 -16 0 -22 -2 -12 -5z"/>
<path d="M9168 8503 c6 -2 18 -2 25 0 6 3 1 5 -13 5 -14 0 -19 -2 -12 -5z"/>
<path d="M6268 8493 c6 -2 18 -2 25 0 6 3 1 5 -13 5 -14 0 -19 -2 -12 -5z"/>
<path d="M9218 8493 c6 -2 18 -2 25 0 6 3 1 5 -13 5 -14 0 -19 -2 -12 -5z"/>
<path d="M6180 8480 c-20 -6 -21 -8 -5 -8 11 0 34 4 50 8 27 7 27 8 5 8 -14 0
-36 -4 -50 -8z"/>
<path d="M9273 8483 c9 -2 23 -2 30 0 6 3 -1 5 -18 5 -16 0 -22 -2 -12 -5z"/>
<path d="M9345 8470 c17 -4 39 -8 50 -8 16 0 15 2 -5 8 -14 4 -36 8 -50 8 -22
0 -22 -1 5 -8z"/>
<path d="M6128 8463 c7 -3 16 -2 19 1 4 3 -2 6 -13 5 -11 0 -14 -3 -6 -6z"/>
<path d="M7443 8463 c42 -2 112 -2 155 0 42 1 7 3 -78 3 -85 0 -120 -2 -77 -3z"/>
<path d="M7698 8463 c12 -2 30 -2 40 0 9 3 -1 5 -23 4 -22 0 -30 -2 -17 -4z"/>
<path d="M7858 8463 c57 -2 147 -2 200 0 53 1 7 3 -103 3 -110 0 -154 -2 -97
-3z"/>
<path d="M6020 8445 c-25 -7 -38 -13 -30 -14 8 0 38 6 65 13 28 8 41 14 30 14
-11 0 -40 -6 -65 -13z"/>
<path d="M7237 8453 c18 -2 50 -2 70 0 21 2 7 4 -32 4 -38 0 -55 -2 -38 -4z"/>
<path d="M8213 8453 c26 -2 67 -2 90 0 23 2 2 3 -48 3 -49 0 -68 -1 -42 -3z"/>
<path d="M9428 8453 c6 -2 18 -2 25 0 6 3 1 5 -13 5 -14 0 -19 -2 -12 -5z"/>
<path d="M6995 8434 l-90 -13 80 6 c44 4 112 9 150 13 l70 7 -60 0 c-33 0
-100 -5 -150 -13z"/>
<path d="M8378 8443 c18 -2 45 -2 60 0 15 2 0 4 -33 4 -33 0 -45 -2 -27 -4z"/>
<path d="M9515 8434 c28 -7 57 -13 65 -13 8 0 -7 7 -35 15 -27 7 -57 13 -65
13 -8 0 8 -7 35 -15z"/>
<path d="M8503 8433 c15 -2 37 -2 50 0 12 2 0 4 -28 4 -27 0 -38 -2 -22 -4z"/>
<path d="M5948 8423 c7 -3 16 -2 19 1 4 3 -2 6 -13 5 -11 0 -14 -3 -6 -6z"/>
<path d="M8581 8426 c2 -2 36 -6 74 -9 54 -4 61 -4 30 3 -40 9 -112 13 -104 6z"/>
<path d="M5898 8413 c7 -3 16 -2 19 1 4 3 -2 6 -13 5 -11 0 -14 -3 -6 -6z"/>
<path d="M6775 8409 c-25 -4 -11 -5 40 -2 44 3 82 7 84 9 7 7 -81 2 -124 -7z"/>
<path d="M9615 8410 c11 -5 27 -9 35 -9 9 0 8 4 -5 9 -11 5 -27 9 -35 9 -9 0
-8 -4 5 -9z"/>
<path d="M5805 8395 c-39 -14 -40 -14 -5 -8 41 7 82 22 60 22 -8 0 -33 -7 -55
-14z"/>
<path d="M8758 8403 c12 -2 30 -2 40 0 9 3 -1 5 -23 4 -22 0 -30 -2 -17 -4z"/>
<path d="M6688 8393 c6 -2 18 -2 25 0 6 3 1 5 -13 5 -14 0 -19 -2 -12 -5z"/>
<path d="M8833 8393 c9 -2 25 -2 35 0 9 3 1 5 -18 5 -19 0 -27 -2 -17 -5z"/>
<path d="M9678 8393 c7 -3 16 -2 19 1 4 3 -2 6 -13 5 -11 0 -14 -3 -6 -6z"/>
<path d="M6525 8374 c-44 -8 -84 -16 -90 -18 -23 -10 26 -4 125 13 58 11 92
19 75 19 -16 0 -66 -6 -110 -14z"/>
<path d="M8903 8383 c9 -2 23 -2 30 0 6 3 -1 5 -18 5 -16 0 -22 -2 -12 -5z"/>
<path d="M9730 8380 c34 -11 60 -11 35 0 -11 5 -29 8 -40 8 -16 0 -15 -2 5 -8z"/>
<path d="M5738 8373 c7 -3 16 -2 19 1 4 3 -2 6 -13 5 -11 0 -14 -3 -6 -6z"/>
<path d="M8963 8373 c9 -2 25 -2 35 0 9 3 1 5 -18 5 -19 0 -27 -2 -17 -5z"/>
<path d="M5670 8360 c-20 -6 -21 -8 -5 -8 11 0 29 3 40 8 25 11 -1 11 -35 0z"/>
<path d="M9033 8363 c9 -2 25 -2 35 0 9 3 1 5 -18 5 -19 0 -27 -2 -17 -5z"/>
<path d="M9805 8361 c11 -4 36 -11 55 -15 24 -4 29 -3 15 3 -11 4 -36 11 -55
15 -24 4 -29 3 -15 -3z"/>
<path d="M7408 8353 c6 -2 18 -2 25 0 6 3 1 5 -13 5 -14 0 -19 -2 -12 -5z"/>
<path d="M7473 8353 c9 -2 23 -2 30 0 6 3 -1 5 -18 5 -16 0 -22 -2 -12 -5z"/>
<path d="M7923 8353 c15 -2 39 -2 55 0 15 2 2 4 -28 4 -30 0 -43 -2 -27 -4z"/>
<path d="M9098 8353 c6 -2 18 -2 25 0 6 3 1 5 -13 5 -14 0 -19 -2 -12 -5z"/>
<path d="M6373 8343 c9 -2 25 -2 35 0 9 3 1 5 -18 5 -19 0 -27 -2 -17 -5z"/>
<path d="M7263 8343 c20 -2 54 -2 75 0 20 2 3 4 -38 4 -41 0 -58 -2 -37 -4z"/>
<path d="M7521 8347 c2 -1 13 -9 24 -17 19 -14 19 -14 6 3 -7 9 -18 17 -24 17
-6 0 -8 -1 -6 -3z"/>
<path d="M8010 8346 c0 -2 7 -7 16 -10 8 -3 12 -2 9 4 -6 10 -25 14 -25 6z"/>
<path d="M8248 8343 c23 -2 59 -2 80 0 20 2 1 4 -43 4 -44 0 -61 -2 -37 -4z"/>
<path d="M9148 8343 c6 -2 18 -2 25 0 6 3 1 5 -13 5 -14 0 -19 -2 -12 -5z"/>
<path d="M5545 8325 c-39 -14 -40 -14 -5 -8 41 7 82 22 60 22 -8 0 -33 -7 -55
-14z"/>
<path d="M6318 8333 c6 -2 18 -2 25 0 6 3 1 5 -13 5 -14 0 -19 -2 -12 -5z"/>
<path d="M7189 8323 c-13 -16 -12 -17 4 -4 9 7 17 15 17 17 0 8 -8 3 -21 -13z"/>
<path d="M8398 8333 c12 -2 32 -2 45 0 12 2 2 4 -23 4 -25 0 -35 -2 -22 -4z"/>
<path d="M9198 8333 c6 -2 18 -2 25 0 6 3 1 5 -13 5 -14 0 -19 -2 -12 -5z"/>
<path d="M9908 8333 c7 -3 16 -2 19 1 4 3 -2 6 -13 5 -11 0 -14 -3 -6 -6z"/>
<path d="M6263 8323 c9 -2 23 -2 30 0 6 3 -1 5 -18 5 -16 0 -22 -2 -12 -5z"/>
<path d="M8495 8320 c27 -12 43 -12 25 0 -8 5 -22 9 -30 9 -10 0 -8 -3 5 -9z"/>
<path d="M9248 8323 c6 -2 18 -2 25 0 6 3 1 5 -13 5 -14 0 -19 -2 -12 -5z"/>
<path d="M6218 8313 c7 -3 16 -2 19 1 4 3 -2 6 -13 5 -11 0 -14 -3 -6 -6z"/>
<path d="M6953 8313 c15 -2 37 -2 50 0 12 2 0 4 -28 4 -27 0 -38 -2 -22 -4z"/>
<path d="M9298 8313 c6 -2 18 -2 25 0 6 3 1 5 -13 5 -14 0 -19 -2 -12 -5z"/>
<path d="M6168 8303 c6 -2 18 -2 25 0 6 3 1 5 -13 5 -14 0 -19 -2 -12 -5z"/>
<path d="M6800 8300 c-50 -11 1 -11 60 -1 41 8 42 8 10 8 -19 0 -51 -3 -70 -7z"/>
<path d="M8041 8294 c0 -11 3 -14 6 -6 3 7 2 16 -1 19 -3 4 -6 -2 -5 -13z"/>
<path d="M8678 8299 c-10 -5 -18 -15 -18 -22 0 -8 3 -7 9 2 5 8 26 17 47 21
35 7 36 8 9 9 -16 0 -38 -4 -47 -10z"/>
<path d="M9385 8295 c28 -7 59 -13 70 -13 11 0 -2 6 -30 13 -27 7 -59 13 -70
13 -11 0 3 -6 30 -13z"/>
<path d="M10030 8295 c19 -7 42 -13 50 -13 8 0 -1 6 -20 13 -19 7 -42 13 -50
13 -8 0 1 -6 20 -13z"/>
<path d="M5350 8268 c-125 -39 -271 -90 -267 -94 1 -2 90 26 197 61 107 35
188 63 180 63 -8 0 -58 -13 -110 -30z"/>
<path d="M6118 8293 c6 -2 18 -2 25 0 6 3 1 5 -13 5 -14 0 -19 -2 -12 -5z"/>
<path d="M7171 8284 c0 -11 3 -14 6 -6 3 7 2 16 -1 19 -3 4 -6 -2 -5 -13z"/>
<path d="M8793 8293 c9 -2 23 -2 30 0 6 3 -1 5 -18 5 -16 0 -22 -2 -12 -5z"/>
<path d="M6068 8283 c6 -2 18 -2 25 0 6 3 1 5 -13 5 -14 0 -19 -2 -12 -5z"/>
<path d="M6738 8283 c7 -3 16 -2 19 1 4 3 -2 6 -13 5 -11 0 -14 -3 -6 -6z"/>
<path d="M8858 8283 c12 -2 30 -2 40 0 9 3 -1 5 -23 4 -22 0 -30 -2 -17 -4z"/>
<path d="M5952 8263 c-40 -9 -71 -18 -68 -20 5 -5 157 25 164 32 8 7 -15 4
-96 -12z"/>
<path d="M6700 8265 c-7 -9 -11 -17 -9 -20 3 -2 10 5 17 15 14 24 10 26 -8 5z"/>
<path d="M8928 8273 c6 -2 18 -2 25 0 6 3 1 5 -13 5 -14 0 -19 -2 -12 -5z"/>
<path d="M9488 8273 c7 -3 16 -2 19 1 4 3 -2 6 -13 5 -11 0 -14 -3 -6 -6z"/>
<path d="M7704 8256 c16 -13 46 -16 165 -14 l146 2 -150 5 c-82 4 -157 10
-165 14 -8 5 -6 1 4 -7z"/>
<path d="M9565 8254 c28 -7 57 -13 65 -13 8 0 -7 7 -35 15 -27 7 -57 13 -65
13 -8 0 8 -7 35 -15z"/>
<path d="M10140 8260 c8 -5 22 -9 30 -9 10 0 8 3 -5 9 -27 12 -43 12 -25 0z"/>
<path d="M6508 8253 c6 -2 18 -2 25 0 6 3 1 5 -13 5 -14 0 -19 -2 -12 -5z"/>
<path d="M6448 8243 c6 -2 18 -2 25 0 6 3 1 5 -13 5 -14 0 -19 -2 -12 -5z"/>
<path d="M7508 8243 c7 -3 16 -2 19 1 4 3 -2 6 -13 5 -11 0 -14 -3 -6 -6z"/>
<path d="M10191 8247 c8 -9 141 -58 146 -54 2 2 -25 14 -59 27 -92 33 -93 34
-87 27z"/>
<path d="M5848 8233 c7 -3 16 -2 19 1 4 3 -2 6 -13 5 -11 0 -14 -3 -6 -6z"/>
<path d="M6310 8222 c-36 -8 -60 -16 -55 -18 6 -2 46 5 90 15 44 11 69 19 55
19 -14 0 -54 -7 -90 -16z"/>
<path d="M6566 8230 c7 -8 14 -24 17 -35 4 -19 5 -19 6 1 0 12 -7 28 -16 35
-16 12 -17 12 -7 -1z"/>
<path d="M7323 8233 c26 -2 68 -2 95 0 26 2 4 3 -48 3 -52 0 -74 -1 -47 -3z"/>
<path d="M8218 8233 c6 -2 18 -2 25 0 6 3 1 5 -13 5 -14 0 -19 -2 -12 -5z"/>
<path d="M8515 8231 c-6 -6 -35 -12 -65 -14 l-55 -3 56 -2 c40 -1 60 2 69 13
14 16 10 21 -5 6z"/>
<path d="M9156 8232 c-2 -4 11 -6 30 -4 19 2 34 6 34 8 0 8 -59 4 -64 -4z"/>
<path d="M9685 8226 c22 -7 56 -16 75 -19 33 -6 33 -6 -5 7 -22 7 -56 16 -75
19 -33 6 -33 6 5 -7z"/>
<path d="M5808 8223 c7 -3 16 -2 19 1 4 3 -2 6 -13 5 -11 0 -14 -3 -6 -6z"/>
<path d="M7228 8223 c6 -2 18 -2 25 0 6 3 1 5 -13 5 -14 0 -19 -2 -12 -5z"/>
<path d="M8298 8223 c18 -2 45 -2 60 0 15 2 0 4 -33 4 -33 0 -45 -2 -27 -4z"/>
<path d="M8656 8217 c3 -10 9 -15 12 -12 3 3 0 11 -7 18 -10 9 -11 8 -5 -6z"/>
<path d="M9021 8214 c0 -11 3 -14 6 -6 3 7 2 16 -1 19 -3 4 -6 -2 -5 -13z"/>
<path d="M9238 8223 c6 -2 18 -2 25 0 6 3 1 5 -13 5 -14 0 -19 -2 -12 -5z"/>
<path d="M5707 8203 c-32 -9 -56 -17 -54 -20 5 -4 129 26 136 33 8 7 -23 2
-82 -13z"/>
<path d="M9288 8213 c7 -3 16 -2 19 1 4 3 -2 6 -13 5 -11 0 -14 -3 -6 -6z"/>
<path d="M6988 8203 c7 -3 16 -2 19 1 4 3 -2 6 -13 5 -11 0 -14 -3 -6 -6z"/>
<path d="M9338 8203 c6 -2 18 -2 25 0 6 3 1 5 -13 5 -14 0 -19 -2 -12 -5z"/>
<path d="M6815 8184 l-100 -13 90 5 c50 3 106 9 125 14 51 12 5 10 -115 -6z"/>
<path d="M8690 8190 c8 -5 28 -10 44 -10 39 0 30 6 -19 13 -27 4 -35 3 -25 -3z"/>
<path d="M9388 8193 c7 -3 16 -2 19 1 4 3 -2 6 -13 5 -11 0 -14 -3 -6 -6z"/>
<path d="M9870 8174 c41 -13 80 -23 85 -23 6 1 -24 12 -65 25 -41 13 -79 23
-85 23 -5 -1 24 -12 65 -25z"/>
<path d="M6214 8175 c-4 -8 -3 -26 0 -40 10 -40 47 -49 149 -34 48 6 85 14 83
17 -3 2 -43 -1 -90 -8 -77 -12 -87 -11 -111 4 -21 14 -26 24 -23 47 5 31 1 38
-8 14z"/>
<path d="M8788 8173 c12 -2 30 -2 40 0 9 3 -1 5 -23 4 -22 0 -30 -2 -17 -4z"/>
<path d="M9460 8176 c0 -2 8 -10 18 -17 15 -13 16 -12 3 4 -13 16 -21 21 -21
13z"/>
<path d="M10400 8168 c158 -67 254 -122 307 -176 33 -33 48 -44 35 -25 -43 62
-156 136 -284 187 -63 25 -110 36 -58 14z"/>
<path d="M5040 8160 c-8 -5 -10 -10 -5 -10 6 0 17 5 25 10 8 5 11 10 5 10 -5
0 -17 -5 -25 -10z"/>
<path d="M5545 8155 c-39 -14 -40 -14 -5 -8 41 7 82 22 60 22 -8 0 -33 -7 -55
-14z"/>
<path d="M6038 8163 c6 -2 18 -2 25 0 6 3 1 5 -13 5 -14 0 -19 -2 -12 -5z"/>
<path d="M6563 8159 c-6 -6 -32 -16 -59 -24 -27 -7 -42 -14 -34 -14 27 -2 88
19 100 34 14 17 9 20 -7 4z"/>
<path d="M8863 8163 c9 -2 25 -2 35 0 9 3 1 5 -18 5 -19 0 -27 -2 -17 -5z"/>
<path d="M5988 8153 c6 -2 18 -2 25 0 6 3 1 5 -13 5 -14 0 -19 -2 -12 -5z"/>
<path d="M6094 8144 c9 -8 16 -20 16 -26 0 -6 3 -9 6 -6 8 9 -14 48 -27 48 -6
0 -3 -7 5 -16z"/>
<path d="M9140 8151 c0 -6 4 -13 10 -16 6 -3 7 1 4 9 -7 18 -14 21 -14 7z"/>
<path d="M4943 8121 c-100 -47 -185 -116 -228 -183 -27 -43 -11 -33 18 11 34
52 130 124 220 166 39 19 68 34 62 35 -5 0 -38 -13 -72 -29z"/>
<path d="M5910 8135 c-19 -7 -28 -13 -20 -13 8 0 31 6 50 13 19 7 28 13 20 13
-8 0 -31 -6 -50 -13z"/>
<path d="M10015 8130 c28 -10 57 -18 65 -18 8 0 -7 8 -35 18 -27 10 -57 18
-65 18 -8 0 8 -8 35 -18z"/>
<path d="M9491 8124 c0 -11 3 -14 6 -6 3 7 2 16 -1 19 -3 4 -6 -2 -5 -13z"/>
<path d="M9621 8126 c2 -2 29 -6 59 -9 36 -4 46 -3 30 3 -25 8 -97 13 -89 6z"/>
<path d="M5375 8105 c-39 -17 -21 -18 25 0 19 7 28 14 20 14 -8 0 -28 -6 -45
-14z"/>
<path d="M9198 8113 c7 -3 16 -2 19 1 4 3 -2 6 -13 5 -11 0 -14 -3 -6 -6z"/>
<path d="M5818 8103 c7 -3 16 -2 19 1 4 3 -2 6 -13 5 -11 0 -14 -3 -6 -6z"/>
<path d="M9238 8103 c6 -2 18 -2 25 0 6 3 1 5 -13 5 -14 0 -19 -2 -12 -5z"/>
<path d="M9755 8100 c11 -5 27 -9 35 -9 9 0 8 4 -5 9 -11 5 -27 9 -35 9 -9 0
-8 -4 5 -9z"/>
<path d="M5775 8090 c-3 -6 1 -7 9 -4 18 7 21 14 7 14 -6 0 -13 -4 -16 -10z"/>
<path d="M9288 8093 c6 -2 18 -2 25 0 6 3 1 5 -13 5 -14 0 -19 -2 -12 -5z"/>
<path d="M9450 8078 c-19 -10 -27 -17 -17 -14 10 4 25 6 32 6 7 0 15 7 19 15
3 8 4 15 3 14 -1 -1 -18 -10 -37 -21z"/>
<path d="M9350 8080 c14 -4 34 -8 45 -8 l20 -1 -20 9 c-11 5 -31 8 -45 8 l-25
0 25 -8z"/>
<path d="M9582 8070 c0 -14 2 -19 5 -12 2 6 2 18 0 25 -3 6 -5 1 -5 -13z"/>
<path d="M9840 8075 c46 -18 64 -17 25 0 -16 8 -37 14 -45 14 -8 0 1 -7 20
-14z"/>
<path d="M5237 8058 c-32 -11 -56 -22 -54 -24 4 -5 127 36 127 42 0 6 -11 4
-73 -18z"/>
<path d="M6060 8050 c-25 -11 -39 -19 -32 -19 16 -1 82 26 82 33 0 4 -1 6 -2
5 -2 -1 -23 -9 -48 -19z"/>
<path d="M10230 8060 c8 -5 20 -10 25 -10 6 0 3 5 -5 10 -8 5 -19 10 -25 10
-5 0 -3 -5 5 -10z"/>
<path d="M5550 8040 c-10 -6 -2 -7 25 -3 49 7 58 13 19 13 -16 0 -36 -5 -44
-10z"/>
<path d="M10280 8040 c8 -5 20 -10 25 -10 6 0 3 5 -5 10 -8 5 -19 10 -25 10
-5 0 -3 -5 5 -10z"/>
<path d="M5125 8015 c-25 -12 -26 -14 -5 -9 28 7 60 23 45 23 -5 0 -23 -6 -40
-14z"/>
<path d="M5988 8023 c7 -3 16 -2 19 1 4 3 -2 6 -13 5 -11 0 -14 -3 -6 -6z"/>
<path d="M10340 8018 c14 -6 57 -26 96 -44 97 -45 159 -104 189 -179 14 -33
25 -52 25 -42 0 34 -49 115 -97 156 -45 40 -160 102 -213 115 l-25 6 25 -12z"/>
<path d="M5468 8013 c7 -3 16 -2 19 1 4 3 -2 6 -13 5 -11 0 -14 -3 -6 -6z"/>
<path d="M5948 8013 c7 -3 16 -2 19 1 4 3 -2 6 -13 5 -11 0 -14 -3 -6 -6z"/>
<path d="M9630 8010 c8 -5 22 -9 30 -9 10 0 8 3 -5 9 -27 12 -43 12 -25 0z"/>
<path d="M5393 7992 c-23 -10 -48 -23 -55 -30 -7 -7 6 -4 27 6 22 10 51 23 65
30 40 17 9 13 -37 -6z"/>
<path d="M5757 7999 c7 -7 15 -10 18 -7 3 3 -2 9 -12 12 -14 6 -15 5 -6 -5z"/>
<path d="M5908 8003 c7 -3 16 -2 19 1 4 3 -2 6 -13 5 -11 0 -14 -3 -6 -6z"/>
<path d="M10051 7984 c-12 -15 -21 -32 -21 -38 0 -6 9 4 21 23 20 33 22 33 72
28 33 -3 45 -2 32 3 -41 18 -83 11 -104 -16z"/>
<path d="M5050 7985 c-14 -8 -20 -14 -15 -14 6 0 21 6 35 14 14 8 21 14 15 14
-5 0 -21 -6 -35 -14z"/>
<path d="M5868 7993 c7 -3 16 -2 19 1 4 3 -2 6 -13 5 -11 0 -14 -3 -6 -6z"/>
<path d="M5828 7983 c7 -3 16 -2 19 1 4 3 -2 6 -13 5 -11 0 -14 -3 -6 -6z"/>
<path d="M9718 7983 c7 -3 16 -2 19 1 4 3 -2 6 -13 5 -11 0 -14 -3 -6 -6z"/>
<path d="M5628 7948 c-10 -10 -14 -18 -9 -18 10 0 36 29 30 34 -2 1 -12 -6
-21 -16z"/>
<path d="M9788 7963 c7 -3 16 -2 19 1 4 3 -2 6 -13 5 -11 0 -14 -3 -6 -6z"/>
<path d="M9863 7943 c9 -2 25 -2 35 0 9 3 1 5 -18 5 -19 0 -27 -2 -17 -5z"/>
<path d="M4901 7891 c-28 -27 -51 -56 -51 -63 0 -7 8 -1 18 14 10 15 36 43 58
62 21 19 36 35 32 36 -4 0 -29 -22 -57 -49z"/>
<path d="M5312 7920 c0 -14 2 -19 5 -12 2 6 2 18 0 25 -3 6 -5 1 -5 -13z"/>
<path d="M10360 7910 c30 -15 75 -47 99 -71 24 -23 38 -33 32 -21 -19 35 -148
123 -178 122 -4 -1 17 -14 47 -30z"/>
<path d="M5540 7910 c-25 -11 -38 -19 -30 -19 8 0 33 8 55 18 51 25 34 25 -25
1z"/>
<path d="M10777 7895 c9 -19 18 -33 21 -31 4 5 -26 66 -33 66 -3 0 3 -16 12
-35z"/>
<path d="M5140 7900 c-8 -5 -10 -10 -5 -10 6 0 17 5 25 10 8 5 11 10 5 10 -5
0 -17 -5 -25 -10z"/>
<path d="M4685 7889 c-4 -6 -5 -12 -2 -15 2 -3 7 2 10 11 7 17 1 20 -8 4z"/>
<path d="M5320 7886 c0 -2 8 -10 18 -17 15 -13 16 -12 3 4 -13 16 -21 21 -21
13z"/>
<path d="M5455 7880 c-13 -6 -15 -9 -5 -9 8 0 22 4 30 9 18 12 2 12 -25 0z"/>
<path d="M10126 7875 c17 -7 44 -16 60 -20 25 -4 24 -3 -6 8 -19 8 -46 17 -60
20 -19 5 -17 3 6 -8z"/>
<path d="M5245 7849 c-8 -27 -21 -40 -70 -66 -33 -17 -66 -42 -74 -55 l-15
-23 23 23 c12 12 44 33 71 47 53 27 84 63 78 91 -2 11 -7 4 -13 -17z"/>
<path d="M5408 7863 c7 -3 16 -2 19 1 4 3 -2 6 -13 5 -11 0 -14 -3 -6 -6z"/>
<path d="M5011 7815 c-22 -24 -41 -53 -40 -62 0 -13 3 -11 10 7 6 14 26 42 47
63 20 20 33 37 30 37 -3 0 -24 -20 -47 -45z"/>
<path d="M10220 7845 c0 -8 73 -36 78 -30 3 3 3 5 0 5 -3 0 -22 7 -42 15 -20
8 -36 13 -36 10z"/>
<path d="M10806 7832 c3 -13 9 -45 14 -70 l8 -47 0 40 c1 22 -5 54 -13 70 -11
21 -13 23 -9 7z"/>
<path d="M10325 7795 c11 -9 27 -22 36 -28 8 -7 21 -21 27 -32 9 -15 11 -16
12 -4 0 18 -34 51 -70 68 -24 12 -24 12 -5 -4z"/>
<path d="M4646 7769 c-3 -17 -5 -813 -4 -1768 l3 -1736 5 1765 c3 971 4 1766
4 1768 -1 1 -4 -12 -8 -29z"/>
<path d="M4831 7764 c0 -11 3 -14 6 -6 3 7 2 16 -1 19 -3 4 -6 -2 -5 -13z"/>
<path d="M10517 7730 c3 -25 7 -47 9 -49 8 -9 2 55 -6 74 -6 13 -7 5 -3 -25z"/>
<path d="M4825 5970 c0 -976 1 -1376 2 -888 2 489 2 1287 0 1775 -1 489 -2 89
-2 -887z"/>
<path d="M4961 7714 c0 -11 3 -14 6 -6 3 7 2 16 -1 19 -3 4 -6 -2 -5 -13z"/>
<path d="M10655 6010 c0 -943 1 -1329 2 -858 2 472 2 1244 0 1715 -1 472 -2
86 -2 -857z"/>
<path d="M10835 6040 c0 -921 1 -1298 2 -837 2 460 2 1214 0 1675 -1 460 -2
83 -2 -838z"/>
<path d="M5082 7640 c0 -19 2 -27 5 -17 2 9 2 25 0 35 -3 9 -5 1 -5 -18z"/>
<path d="M10403 7625 c0 -22 2 -30 4 -17 2 12 2 30 0 40 -3 9 -5 -1 -4 -23z"/>
<path d="M4960 7581 c0 -6 4 -13 10 -16 6 -3 7 1 4 9 -7 18 -14 21 -14 7z"/>
<path d="M6158 7583 c265 -2 699 -2 965 0 265 1 48 2 -483 2 -531 0 -748 -1
-482 -2z"/>
<path d="M7755 7578 c-3 -7 -4 -296 -3 -643 l3 -630 138 -3 137 -3 0 -1004 0
-1005 -345 0 -345 0 0 1005 0 1004 133 3 132 3 0 628 0 627 -2 -625 -3 -625
-135 0 -135 0 0 -1015 0 -1015 355 0 355 0 0 1015 0 1015 -140 0 -140 0 0 635
0 635 1010 0 1010 0 3 -632 2 -633 0 635 0 635 -1013 3 c-805 2 -1014 0 -1017
-10z"/>
<path d="M5675 6933 l0 -628 158 -3 157 -3 0 -1313 0 -1314 38 -39 c33 -34 97
-91 380 -341 39 -35 72 -61 72 -59 0 3 -73 70 -162 148 -90 78 -198 176 -240
218 l-78 76 0 1317 0 1318 -160 0 -160 0 -3 625 -2 625 0 -627z"/>
<path d="M10448 7543 c7 -3 16 -2 19 1 4 3 -2 6 -13 5 -11 0 -14 -3 -6 -6z"/>
<path d="M5018 7533 c7 -3 16 -2 19 1 4 3 -2 6 -13 5 -11 0 -14 -3 -6 -6z"/>
<path d="M4970 7429 c-6 -11 -10 -25 -8 -30 2 -5 8 4 15 21 13 34 9 40 -7 9z"/>
<path d="M5820 6940 l0 -510 160 0 160 0 3 -1347 2 -1348 3 1353 2 1352 -160
0 -160 0 0 500 0 500 815 0 815 0 0 -500 0 -500 -140 0 -140 0 2 -1147 3
-1148 495 0 495 0 0 1145 0 1145 -137 3 -138 3 0 499 0 500 865 0 865 0 0
-500 0 -500 -177 -2 -178 -3 -5 -1355 -5 -1355 -85 -81 c-151 -142 -341 -316
-497 -453 -84 -73 -153 -135 -153 -138 0 -12 440 381 658 588 l92 88 0 1351 0
1350 180 0 180 0 0 510 0 510 -875 0 -875 0 0 -510 0 -510 140 0 140 0 0
-1140 0 -1140 -490 0 -490 0 0 1140 0 1140 140 0 140 0 0 510 0 510 -825 0
-825 0 0 -510z"/>
<path d="M10415 7439 c-4 -6 -5 -12 -2 -15 2 -3 7 2 10 11 7 17 1 20 -8 4z"/>
<path d="M10521 7404 c0 -11 3 -14 6 -6 3 7 2 16 -1 19 -3 4 -6 -2 -5 -13z"/>
<path d="M10404 7300 c0 -63 1 -89 3 -57 2 31 2 83 0 115 -2 31 -3 5 -3 -58z"/>
<path d="M5083 7355 c0 -22 2 -30 4 -17 2 12 2 30 0 40 -3 9 -5 -1 -4 -23z"/>
<path d="M5915 7358 c-3 -7 -4 -191 -2 -408 l2 -395 3 403 2 402 715 0 714 0
4 -67 4 -68 -1 70 -1 70 -718 3 c-569 2 -719 0 -722 -10z"/>
<path d="M8378 7363 c210 -2 554 -2 765 0 210 1 38 2 -383 2 -421 0 -593 -1
-382 -2z"/>
<path d="M9532 6948 l-2 -418 -175 0 -175 0 0 -1372 -1 -1373 -47 -46 c-26
-25 -143 -133 -259 -238 -117 -106 -213 -195 -213 -198 0 -5 226 198 418 375
l112 104 0 1369 0 1369 170 0 c127 0 172 3 175 13 3 6 4 197 2 422 l-2 410 -3
-417z"/>
<path d="M7354 7125 c0 -49 1 -71 3 -48 2 23 2 64 0 90 -2 26 -3 8 -3 -42z"/>
<path d="M10522 7190 c0 -14 2 -19 5 -12 2 6 2 18 0 25 -3 6 -5 1 -5 -13z"/>
<path d="M4961 7185 c-1 -24 25 -65 41 -65 7 0 4 6 -5 13 -10 6 -21 26 -26 42
-7 21 -10 24 -10 10z"/>
<path d="M10416 7146 c3 -8 13 -17 22 -21 13 -5 13 -2 -3 15 -21 24 -26 25
-19 6z"/>
<path d="M10496 7135 c-11 -8 -15 -15 -9 -15 6 0 16 7 23 15 16 19 11 19 -14
0z"/>
<path d="M7992 7080 c0 -14 2 -19 5 -12 2 6 2 18 0 25 -3 6 -5 1 -5 -13z"/>
<path d="M7353 6995 c0 -22 2 -30 4 -17 2 12 2 30 0 40 -3 9 -5 -1 -4 -23z"/>
<path d="M4983 7013 c-7 -2 -13 -10 -13 -16 0 -8 4 -7 12 1 18 18 75 15 87 -5
6 -10 11 -13 11 -7 1 28 -56 44 -97 27z"/>
<path d="M10416 6998 c-13 -18 -16 -48 -14 -148 l2 -125 5 131 c4 89 10 136
20 148 7 9 11 16 8 16 -3 0 -13 -10 -21 -22z"/>
<path d="M10490 7016 c0 -2 8 -10 18 -17 15 -13 16 -12 3 4 -13 16 -21 21 -21
13z"/>
<path d="M4963 6940 c0 -25 2 -35 4 -22 2 12 2 32 0 45 -2 12 -4 2 -4 -23z"/>
<path d="M10522 6955 c0 -16 2 -22 5 -12 2 9 2 23 0 30 -3 6 -5 -1 -5 -18z"/>
<path d="M5082 6950 c0 -14 2 -19 5 -12 2 6 2 18 0 25 -3 6 -5 1 -5 -13z"/>
<path d="M7352 6910 c0 -19 2 -27 5 -17 2 9 2 25 0 35 -3 9 -5 1 -5 -18z"/>
<path d="M7352 6703 l-2 -173 -135 0 -135 0 0 -1240 0 -1240 610 0 610 0 0
1240 0 1240 -152 -2 -153 -2 148 -3 147 -4 0 -1229 0 -1230 -600 0 -600 0 0
1230 0 1230 130 0 c97 0 132 3 136 13 2 7 3 87 1 177 l-3 165 -2 -172z"/>
<path d="M4962 6740 c0 -14 2 -19 5 -12 2 6 2 18 0 25 -3 6 -5 1 -5 -13z"/>
<path d="M5082 6740 c0 -14 2 -19 5 -12 2 6 2 18 0 25 -3 6 -5 1 -5 -13z"/>
<path d="M10522 6735 c0 -16 2 -22 5 -12 2 9 2 23 0 30 -3 6 -5 -1 -5 -18z"/>
<path d="M4980 6690 c6 -11 13 -20 16 -20 2 0 0 9 -6 20 -6 11 -13 20 -16 20
-2 0 0 -9 6 -20z"/>
<path d="M10420 6696 c0 -2 8 -10 18 -17 15 -13 16 -12 3 4 -13 16 -21 21 -21
13z"/>
<path d="M4979 6553 c-13 -17 -13 -17 6 -3 11 8 22 16 24 17 2 2 0 3 -6 3 -6
0 -17 -8 -24 -17z"/>
<path d="M10419 6553 c-13 -16 -12 -17 4 -4 9 7 17 15 17 17 0 8 -8 3 -21 -13z"/>
<path d="M10490 6566 c0 -2 8 -10 18 -17 15 -13 16 -12 3 4 -13 16 -21 21 -21
13z"/>
<path d="M5914 6538 c2 -10 43 -14 164 -16 l162 -2 3 -1368 2 -1367 3 1373 2
1372 -164 0 c-102 0 -166 4 -169 10 -3 6 -4 5 -3 -2z"/>
<path d="M4963 6495 c0 -22 2 -30 4 -17 2 12 2 30 0 40 -3 9 -5 -1 -4 -23z"/>
<path d="M5081 6504 c0 -11 3 -14 6 -6 3 7 2 16 -1 19 -3 4 -6 -2 -5 -13z"/>
<path d="M10402 6500 c0 -14 2 -19 5 -12 2 6 2 18 0 25 -3 6 -5 1 -5 -13z"/>
<path d="M10523 6480 c0 -25 2 -35 4 -22 2 12 2 32 0 45 -2 12 -4 2 -4 -23z"/>
<path d="M4962 6425 c0 -16 2 -22 5 -12 2 9 2 23 0 30 -3 6 -5 -1 -5 -18z"/>
<path d="M10403 6335 c0 -27 2 -38 4 -22 2 15 2 37 0 50 -2 12 -4 0 -4 -28z"/>
<path d="M4963 6330 c0 -25 2 -35 4 -22 2 12 2 32 0 45 -2 12 -4 2 -4 -23z"/>
<path d="M10522 6310 c0 -19 2 -27 5 -17 2 9 2 25 0 35 -3 9 -5 1 -5 -18z"/>
<path d="M9420 4985 l0 -1324 -77 -74 c-85 -80 -326 -300 -483 -439 -54 -48
-102 -93 -106 -100 -10 -16 124 100 261 226 55 51 159 146 230 210 72 65 142
131 158 147 l27 29 0 1320 0 1320 173 3 172 3 -177 2 -178 2 0 -1325z"/>
<path d="M10410 6273 c0 -6 8 -17 18 -24 16 -13 16 -13 2 6 -8 11 -16 22 -17
24 -2 2 -3 0 -3 -6z"/>
<path d="M4976 6257 c3 -10 9 -15 12 -12 3 3 0 11 -7 18 -10 9 -11 8 -5 -6z"/>
<path d="M10506 6253 c-6 -14 -5 -15 5 -6 7 7 10 15 7 18 -3 3 -9 -2 -12 -12z"/>
<path d="M5030 6240 c-23 -7 -23 -8 -3 -9 12 -1 25 4 28 9 3 6 5 10 3 9 -2 -1
-14 -5 -28 -9z"/>
<path d="M4976 6121 c-10 -11 -16 -28 -13 -38 4 -15 5 -15 6 3 1 26 17 40 51
47 l25 4 -26 2 c-14 0 -34 -8 -43 -18z"/>
<path d="M10416 6118 c-9 -12 -15 -38 -15 -58 1 -34 2 -33 9 9 4 25 15 50 25
57 10 8 14 14 7 14 -6 0 -18 -10 -26 -22z"/>
<path d="M5061 6113 c7 -12 15 -20 18 -17 3 2 -3 12 -13 22 -17 16 -18 16 -5
-5z"/>
<path d="M10506 6107 c3 -10 9 -15 12 -12 3 3 0 11 -7 18 -10 9 -11 8 -5 -6z"/>
<path d="M10524 5975 c0 -60 1 -84 3 -52 2 32 2 81 0 110 -2 29 -3 3 -3 -58z"/>
<path d="M5084 5970 c0 -58 1 -81 3 -52 2 28 2 76 0 105 -2 28 -3 5 -3 -53z"/>
<path d="M10402 5965 c0 -16 2 -22 5 -12 2 9 2 23 0 30 -3 6 -5 -1 -5 -18z"/>
<path d="M10401 5864 c0 -11 3 -14 6 -6 3 7 2 16 -1 19 -3 4 -6 -2 -5 -13z"/>
<path d="M4961 5854 c0 -11 3 -14 6 -6 3 7 2 16 -1 19 -3 4 -6 -2 -5 -13z"/>
<path d="M10410 5836 c0 -2 8 -10 18 -17 15 -13 16 -12 3 4 -13 16 -21 21 -21
13z"/>
<path d="M4977 5819 c7 -7 15 -10 18 -7 3 3 -2 9 -12 12 -14 6 -15 5 -6 -5z"/>
<path d="M10523 5585 c0 -44 2 -61 4 -37 2 23 2 59 0 80 -2 20 -4 1 -4 -43z"/>
<path d="M10401 5634 c0 -11 3 -14 6 -6 3 7 2 16 -1 19 -3 4 -6 -2 -5 -13z"/>
<path d="M5083 5580 c0 -36 2 -50 4 -32 2 17 2 47 0 65 -2 17 -4 3 -4 -33z"/>
<path d="M4951 5514 c0 -11 3 -14 6 -6 3 7 2 16 -1 19 -3 4 -6 -2 -5 -13z"/>
<path d="M10403 5450 c0 -25 2 -35 4 -22 2 12 2 32 0 45 -2 12 -4 2 -4 -23z"/>
<path d="M10522 5440 c0 -14 2 -19 5 -12 2 6 2 18 0 25 -3 6 -5 1 -5 -13z"/>
<path d="M4961 5424 c-1 -12 7 -30 17 -41 9 -10 13 -13 9 -7 -5 7 -12 25 -17
41 -7 23 -8 24 -9 7z"/>
<path d="M5081 5424 c0 -11 3 -14 6 -6 3 7 2 16 -1 19 -3 4 -6 -2 -5 -13z"/>
<path d="M5066 5383 c-6 -14 -5 -15 5 -6 7 7 10 15 7 18 -3 3 -9 -2 -12 -12z"/>
<path d="M10410 5391 c0 -5 5 -13 10 -16 6 -3 10 -2 10 4 0 5 -4 13 -10 16 -5
3 -10 2 -10 -4z"/>
<path d="M10497 5380 c-9 -11 -13 -20 -8 -20 11 0 35 29 29 35 -2 2 -12 -4
-21 -15z"/>
<path d="M10419 5253 c-13 -17 -13 -17 6 -3 11 8 22 16 24 17 2 2 0 3 -6 3 -6
0 -17 -8 -24 -17z"/>
<path d="M10480 5266 c0 -2 7 -7 16 -10 8 -3 12 -2 9 4 -6 10 -25 14 -25 6z"/>
<path d="M4962 5205 c0 -16 2 -22 5 -12 2 9 2 23 0 30 -3 6 -5 -1 -5 -18z"/>
<path d="M10404 5110 c0 -69 1 -97 3 -62 2 34 2 90 0 125 -2 34 -3 6 -3 -63z"/>
<path d="M10523 5195 c0 -22 2 -30 4 -17 2 12 2 30 0 40 -3 9 -5 -1 -4 -23z"/>
<path d="M5082 5200 c0 -14 2 -19 5 -12 2 6 2 18 0 25 -3 6 -5 1 -5 -13z"/>
<path d="M4961 5004 c0 -11 3 -14 6 -6 3 7 2 16 -1 19 -3 4 -6 -2 -5 -13z"/>
<path d="M10522 4995 c0 -16 2 -22 5 -12 2 9 2 23 0 30 -3 6 -5 -1 -5 -18z"/>
<path d="M10411 4970 c-2 -40 74 -56 100 -22 11 14 11 15 -1 5 -8 -7 -29 -13
-47 -13 -26 0 -36 5 -43 23 -5 13 -9 16 -9 7z"/>
<path d="M5065 4959 c-4 -6 -5 -12 -2 -15 2 -3 7 2 10 11 7 17 1 20 -8 4z"/>
<path d="M4989 4937 c5 -5 19 -7 32 -5 20 3 19 5 -9 9 -20 3 -29 2 -23 -4z"/>
<path d="M4986 4814 c-22 -21 -20 -31 2 -11 9 8 28 17 42 20 l25 4 -27 2 c-15
0 -34 -6 -42 -15z"/>
<path d="M10468 4823 c7 -3 16 -2 19 1 4 3 -2 6 -13 5 -11 0 -14 -3 -6 -6z"/>
<path d="M10521 4774 c0 -11 3 -14 6 -6 3 7 2 16 -1 19 -3 4 -6 -2 -5 -13z"/>
<path d="M4962 4755 c0 -16 2 -22 5 -12 2 9 2 23 0 30 -3 6 -5 -1 -5 -18z"/>
<path d="M5082 4755 c0 -16 2 -22 5 -12 2 9 2 23 0 30 -3 6 -5 -1 -5 -18z"/>
<path d="M10402 4755 c0 -16 2 -22 5 -12 2 9 2 23 0 30 -3 6 -5 -1 -5 -18z"/>
<path d="M10402 4690 c0 -19 2 -27 5 -17 2 9 2 25 0 35 -3 9 -5 1 -5 -18z"/>
<path d="M4963 4595 c0 -27 2 -38 4 -22 2 15 2 37 0 50 -2 12 -4 0 -4 -28z"/>
<path d="M10402 4585 c0 -16 2 -22 5 -12 2 9 2 23 0 30 -3 6 -5 -1 -5 -18z"/>
<path d="M10522 4560 c0 -14 2 -19 5 -12 2 6 2 18 0 25 -3 6 -5 1 -5 -13z"/>
<path d="M4970 4537 c0 -5 5 -17 10 -28 14 -25 72 -26 91 -1 11 14 11 15 -1 5
-23 -21 -67 -16 -84 9 -9 12 -16 19 -16 15z"/>
<path d="M10506 4513 c-6 -14 -5 -15 5 -6 7 7 10 15 7 18 -3 3 -9 -2 -12 -12z"/>
<path d="M10458 4493 c6 -2 18 -2 25 0 6 3 1 5 -13 5 -14 0 -19 -2 -12 -5z"/>
<path d="M4986 4374 c-22 -21 -20 -31 2 -11 9 8 28 17 42 20 l25 4 -27 2 c-15
0 -34 -6 -42 -15z"/>
<path d="M10430 4380 c-9 -6 -10 -10 -3 -10 6 0 15 5 18 10 8 12 4 12 -15 0z"/>
<path d="M10507 4370 c4 -8 11 -58 14 -110 l5 -95 2 91 c2 69 -2 95 -14 110
-8 10 -12 12 -7 4z"/>
<path d="M5075 4352 c4 -13 11 -45 16 -70 l8 -47 -4 53 c-2 28 -9 60 -15 70
-9 14 -10 13 -5 -6z"/>
<path d="M10832 4325 c0 -16 2 -22 5 -12 2 9 2 23 0 30 -3 6 -5 -1 -5 -18z"/>
<path d="M4963 4280 c0 -36 2 -50 4 -32 2 17 2 47 0 65 -2 17 -4 3 -4 -33z"/>
<path d="M10402 4305 c0 -16 2 -22 5 -12 2 9 2 23 0 30 -3 6 -5 -1 -5 -18z"/>
<path d="M10393 4215 c0 -27 2 -38 4 -22 2 15 2 37 0 50 -2 12 -4 0 -4 -28z"/>
<path d="M4653 4185 c0 -27 2 -38 4 -22 2 15 2 37 0 50 -2 12 -4 0 -4 -28z"/>
<path d="M10822 4182 c-1 -24 -7 -75 -13 -113 -6 -39 -9 -73 -6 -75 8 -8 29
160 24 197 -3 31 -4 31 -5 -9z"/>
<path d="M4975 4153 c4 -59 20 -103 38 -103 4 0 1 11 -8 24 -8 12 -20 50 -25
82 l-9 59 4 -62z"/>
<path d="M5103 4175 c0 -22 2 -30 4 -17 2 12 2 30 0 40 -3 9 -5 -1 -4 -23z"/>
<path d="M10643 4170 c0 -25 2 -35 4 -22 2 12 2 32 0 45 -2 12 -4 2 -4 -23z"/>
<path d="M4831 4154 c1 -21 5 -52 9 -69 5 -19 6 -6 3 35 -6 73 -14 94 -12 34z"/>
<path d="M10383 4125 c0 -22 2 -30 4 -17 2 12 2 30 0 40 -3 9 -5 -1 -4 -23z"/>
<path d="M10503 4110 c-5 -22 -7 -37 -2 -35 9 6 23 64 17 70 -2 3 -9 -13 -15
-35z"/>
<path d="M4662 4105 c-2 -44 33 -202 68 -306 29 -88 101 -244 122 -264 5 -5
-11 32 -37 84 -70 141 -117 296 -148 491 -4 22 -4 21 -5 -5z"/>
<path d="M10632 4075 c0 -16 2 -22 5 -12 2 9 2 23 0 30 -3 6 -5 -1 -5 -18z"/>
<path d="M5096 4073 c-6 -14 -5 -15 5 -6 7 7 10 15 7 18 -3 3 -9 -2 -12 -12z"/>
<path d="M4852 4035 c0 -11 4 -31 8 -45 6 -20 8 -21 8 -5 0 11 -4 31 -8 45 -6
20 -8 21 -8 5z"/>
<path d="M10616 3999 c-4 -23 -5 -44 -2 -46 2 -2 7 14 11 37 4 23 5 43 2 46
-2 3 -7 -14 -11 -37z"/>
<path d="M10781 3924 c-7 -30 -11 -57 -8 -60 2 -2 9 21 16 52 7 30 11 57 8 60
-2 2 -9 -21 -16 -52z"/>
<path d="M10334 3948 l-19 -23 25 20 c14 11 27 21 29 22 2 2 0 3 -6 3 -5 0
-18 -10 -29 -22z"/>
<path d="M4871 3944 c0 -11 3 -14 6 -6 3 7 2 16 -1 19 -3 4 -6 -2 -5 -13z"/>
<path d="M5064 3938 l-19 -23 25 20 c14 11 27 21 29 22 2 2 0 3 -6 3 -5 0 -18
-10 -29 -22z"/>
<path d="M5204 3863 c29 -54 55 -107 59 -117 4 -10 10 -17 13 -14 5 6 -103
215 -116 223 -4 3 15 -39 44 -92z"/>
<path d="M10596 3909 c-8 -42 0 -50 9 -9 4 17 5 34 2 36 -2 3 -7 -10 -11 -27z"/>
<path d="M4880 3912 c0 -15 55 -157 75 -192 20 -35 19 -16 -2 23 -9 18 -29 66
-44 107 -15 41 -28 69 -29 62z"/>
<path d="M10281 3863 c-17 -31 -29 -58 -27 -60 1 -2 17 24 35 57 18 33 30 60
27 60 -2 0 -18 -26 -35 -57z"/>
<path d="M10441 3904 c0 -11 3 -14 6 -6 3 7 2 16 -1 19 -3 4 -6 -2 -5 -13z"/>
<path d="M10426 3865 c-9 -26 -7 -32 5 -12 6 10 9 21 6 23 -2 3 -7 -2 -11 -11z"/>
<path d="M5061 3865 c0 -5 11 -30 24 -55 13 -25 24 -40 24 -35 0 6 -11 30 -24
55 -13 25 -24 41 -24 35z"/>
<path d="M10571 3829 c-6 -18 -9 -34 -7 -36 2 -2 9 10 15 28 6 18 9 34 7 36
-2 2 -9 -10 -15 -28z"/>
<path d="M10747 3798 c-9 -29 -15 -54 -13 -56 2 -2 12 20 21 48 9 28 15 53 13
55 -2 3 -12 -19 -21 -47z"/>
<path d="M10390 3790 c-11 -22 -18 -40 -15 -40 2 0 14 18 25 40 11 22 18 40
15 40 -2 0 -14 -18 -25 -40z"/>
<path d="M10225 3760 c-9 -16 -13 -30 -11 -30 3 0 12 14 21 30 9 17 13 30 11
30 -3 0 -12 -13 -21 -30z"/>
<path d="M6261 3773 c1 -5 24 -28 53 -53 l51 -44 -50 52 c-50 53 -56 58 -54
45z"/>
<path d="M10546 3765 c-9 -26 -7 -32 5 -12 6 10 9 21 6 23 -2 3 -7 -2 -11 -11z"/>
<path d="M5131 3723 c13 -24 34 -53 47 -65 18 -17 16 -11 -9 23 -19 25 -40 55
-47 65 -7 10 -3 0 9 -23z"/>
<path d="M10341 3704 c-12 -19 -16 -32 -11 -29 11 7 43 65 36 65 -2 0 -13 -16
-25 -36z"/>
<path d="M10707 3688 c-9 -23 -15 -43 -13 -45 2 -2 11 15 20 38 9 23 15 43 13
45 -2 2 -11 -15 -20 -38z"/>
<path d="M6230 3655 c35 -36 67 -65 69 -65 3 0 -24 29 -59 65 -35 36 -67 65
-69 65 -3 0 24 -29 59 -65z"/>
<path d="M10201 3704 c0 -11 3 -14 6 -6 3 7 2 16 -1 19 -3 4 -6 -2 -5 -13z"/>
<path d="M4990 3650 c11 -22 23 -40 25 -40 3 0 -4 18 -15 40 -11 22 -23 40
-25 40 -3 0 4 -18 15 -40z"/>
<path d="M10506 3673 c-6 -14 -5 -15 5 -6 7 7 10 15 7 18 -3 3 -9 -2 -12 -12z"/>
<path d="M6454 3597 c45 -44 128 -119 186 -169 58 -49 85 -70 60 -46 -25 23
-83 77 -130 118 -46 41 -110 98 -141 125 -31 28 -20 15 25 -28z"/>
<path d="M10475 3619 c-4 -6 -5 -12 -2 -15 2 -3 7 2 10 11 7 17 1 20 -8 4z"/>
<path d="M10657 3575 c-15 -30 -25 -55 -22 -55 7 0 57 101 53 106 -2 2 -16
-21 -31 -51z"/>
<path d="M5029 3585 c5 -11 17 -29 26 -40 l16 -20 -10 20 c-5 11 -17 29 -26
40 l-16 20 10 -20z"/>
<path d="M5310 3565 c-6 -8 -10 -19 -8 -24 1 -6 8 1 15 14 13 28 11 31 -7 10z"/>
<path d="M5446 3520 c99 -105 106 -114 120 -145 7 -16 13 -23 14 -15 0 28 -83
128 -166 200 -16 13 -2 -5 32 -40z"/>
<path d="M6355 3540 c21 -22 41 -40 44 -40 3 0 -13 18 -34 40 -21 22 -41 40
-44 40 -3 0 13 -18 34 -40z"/>
<path d="M10160 3576 c0 -2 8 -10 18 -17 15 -13 16 -12 3 4 -13 16 -21 21 -21
13z"/>
<path d="M10029 3503 c-63 -66 -109 -124 -109 -138 0 -4 16 15 36 42 20 26 62
74 92 106 31 31 54 57 51 57 -3 0 -35 -30 -70 -67z"/>
<path d="M10388 3475 c-31 -47 -55 -85 -53 -85 5 0 89 119 104 148 22 41 6 22
-51 -63z"/>
<path d="M10192 3515 c0 -16 2 -22 5 -12 2 9 2 23 0 30 -3 6 -5 -1 -5 -18z"/>
<path d="M5101 3475 c18 -25 40 -51 48 -58 8 -7 -5 14 -28 46 -51 68 -67 77
-20 12z"/>
<path d="M4890 3465 c27 -46 90 -135 95 -135 5 0 -102 161 -112 169 -4 3 4
-12 17 -34z"/>
<path d="M6420 3486 c17 -22 432 -385 487 -427 l38 -28 782 -1 c430 0 784 3
786 8 3 4 -349 6 -782 4 l-788 -2 -104 87 c-57 47 -178 152 -269 232 -91 80
-158 137 -150 127z"/>
<path d="M10533 3367 c-93 -138 -130 -182 -258 -316 -211 -220 -589 -506 -886
-673 -60 -33 -109 -63 -109 -65 0 -11 189 99 330 192 357 237 599 443 792 673
87 103 232 313 216 312 -2 0 -40 -55 -85 -123z"/>
<path d="M10164 3458 l-19 -23 23 19 c21 18 27 26 19 26 -2 0 -12 -10 -23 -22z"/>
<path d="M5345 3441 c37 -49 100 -113 120 -122 11 -6 1 7 -23 28 -23 21 -59
56 -80 79 -20 22 -28 29 -17 15z"/>
<path d="M10090 3373 l-55 -58 58 55 c31 30 57 56 57 57 0 8 -10 -1 -60 -54z"/>
<path d="M5201 3350 c55 -70 300 -315 359 -359 34 -25 30 -19 -15 20 -77 68
-266 257 -334 334 l-53 60 43 -55z"/>
<path d="M10270 3318 c-30 -35 -97 -108 -149 -164 -74 -78 -69 -73 24 21 108
109 194 205 182 205 -2 0 -28 -28 -57 -62z"/>
<path d="M6750 3336 c0 -2 48 -46 108 -97 141 -121 147 -126 139 -113 -7 13
-247 217 -247 210z"/>
<path d="M5021 3281 c53 -70 209 -240 285 -310 222 -204 640 -504 929 -666
118 -66 269 -145 272 -141 2 2 -34 23 -79 46 -502 260 -1046 660 -1298 955
-41 48 -90 104 -109 124 l-33 36 33 -44z"/>
<path d="M5498 3303 c6 -2 18 -2 25 0 6 3 1 5 -13 5 -14 0 -19 -2 -12 -5z"/>
<path d="M8600 3255 c-24 -25 -42 -45 -39 -45 3 0 25 20 49 45 24 25 42 45 39
45 -3 0 -25 -20 -49 -45z"/>
<path d="M5695 3264 c6 -6 33 -27 60 -49 28 -21 72 -59 98 -84 26 -25 45 -39
42 -31 -8 17 -136 129 -180 155 -16 10 -25 14 -20 9z"/>
<path d="M9795 3260 c-3 -6 1 -7 9 -4 18 7 21 14 7 14 -6 0 -13 -4 -16 -10z"/>
<path d="M9860 3248 c25 -24 38 -29 25 -9 -3 6 -16 16 -28 22 -20 11 -20 9 3
-13z"/>
<path d="M9709 3196 c-91 -76 -122 -111 -116 -133 4 -15 5 -14 6 4 1 19 66 84
161 162 14 11 23 20 19 21 -3 0 -34 -24 -70 -54z"/>
<path d="M6500 3216 c8 -10 97 -87 198 -172 l184 -154 847 2 846 3 -846 2
-845 3 -135 112 c-74 61 -163 136 -199 167 -36 31 -58 48 -50 37z"/>
<path d="M8495 3165 c-27 -25 -45 -45 -39 -45 5 0 30 20 54 45 56 57 49 57
-15 0z"/>
<path d="M5675 3120 c27 -27 51 -50 54 -50 3 0 -17 23 -44 50 -27 28 -51 50
-54 50 -3 0 17 -22 44 -50z"/>
<path d="M9824 3123 c-28 -27 -42 -41 -31 -33 33 24 92 80 86 80 -3 0 -28 -21
-55 -47z"/>
<path d="M7383 3113 c197 -2 517 -2 710 0 194 1 33 2 -358 2 -390 0 -549 -1
-352 -2z"/>
<path d="M5902 3060 c0 -14 2 -19 5 -12 2 6 2 18 0 25 -3 6 -5 1 -5 -13z"/>
<path d="M5740 3067 c0 -14 87 -67 109 -66 24 1 23 2 -5 8 -17 5 -48 20 -68
36 -20 15 -36 25 -36 22z"/>
<path d="M9734 3048 l-19 -23 23 19 c21 18 27 26 19 26 -2 0 -12 -10 -23 -22z"/>
<path d="M9979 3024 c-13 -14 -89 -76 -169 -136 -140 -107 -218 -172 -135
-113 147 105 353 275 333 275 -2 0 -15 -12 -29 -26z"/>
<path d="M8665 2979 c-82 -70 -102 -91 -60 -61 35 25 142 121 135 121 -3 0
-36 -27 -75 -60z"/>
<path d="M9680 3014 c-17 -9 -20 -14 -9 -14 9 0 22 7 29 15 15 18 13 18 -20
-1z"/>
<path d="M9617 3009 c7 -7 15 -10 18 -7 3 3 -2 9 -12 12 -14 6 -15 5 -6 -5z"/>
<path d="M5973 3002 c-7 -5 4 -8 26 -7 22 0 37 3 34 8 -6 9 -45 9 -60 -1z"/>
<path d="M9490 3007 c0 -3 12 -12 26 -22 15 -9 23 -12 20 -6 -7 11 -46 35 -46
28z"/>
<path d="M6055 2983 c15 -15 195 -143 201 -143 9 0 -45 42 -116 91 -75 52
-100 67 -85 52z"/>
<path d="M9414 2974 c-18 -14 -18 -14 6 -3 31 14 36 19 24 19 -6 0 -19 -7 -30
-16z"/>
<path d="M5619 2947 c16 -20 71 -61 71 -54 0 3 -19 20 -42 38 -24 19 -37 26
-29 16z"/>
<path d="M9359 2939 l-24 -20 28 17 c15 9 27 18 27 20 0 8 -8 4 -31 -17z"/>
<path d="M9275 2884 c-27 -19 -54 -43 -59 -54 -9 -21 9 -80 25 -80 5 0 2 11
-7 25 -24 36 -11 66 41 98 25 16 47 33 51 38 8 13 4 11 -51 -27z"/>
<path d="M9520 2895 c-7 -8 -39 -31 -71 -51 -67 -40 -80 -57 -18 -22 41 23
119 87 108 88 -4 0 -12 -7 -19 -15z"/>
<path d="M5715 2870 c10 -11 20 -20 23 -20 3 0 -3 9 -13 20 -10 11 -20 20 -23
20 -3 0 3 -9 13 -20z"/>
<path d="M5995 2872 c23 -24 183 -122 199 -122 6 0 -25 20 -68 45 -43 24 -95
56 -115 71 -25 19 -30 20 -16 6z"/>
<path d="M5775 2825 c49 -42 415 -286 395 -262 -3 3 -80 55 -170 115 -91 60
-185 124 -210 142 -32 23 -36 24 -15 5z"/>
<path d="M6262 2810 c0 -14 2 -19 5 -12 2 6 2 18 0 25 -3 6 -5 1 -5 -13z"/>
<path d="M9337 2774 c-3 -3 -23 -12 -44 -19 -21 -8 -30 -14 -20 -15 18 0 77
27 77 35 0 7 -5 6 -13 -1z"/>
<path d="M6395 2760 c27 -12 43 -12 25 0 -8 5 -22 9 -30 9 -10 0 -8 -3 5 -9z"/>
<path d="M9082 2750 c14 -4 32 -11 40 -15 7 -3 4 1 -6 9 -11 9 -29 16 -40 15
-17 -1 -16 -2 6 -9z"/>
<path d="M6336 2735 c-9 -26 -7 -32 5 -12 6 10 9 21 6 23 -2 3 -7 -2 -11 -11z"/>
<path d="M8954 2702 c-45 -26 -97 -60 -115 -75 l-34 -28 32 21 c18 12 74 46
125 75 51 30 89 55 83 54 -5 0 -47 -21 -91 -47z"/>
<path d="M6460 2736 c0 -3 14 -12 30 -21 17 -9 30 -13 30 -11 0 3 -13 12 -30
21 -16 9 -30 13 -30 11z"/>
<path d="M9531 2685 c-36 -25 -61 -45 -57 -45 9 0 126 79 126 85 0 8 -2 7 -69
-40z"/>
<path d="M6330 2686 c0 -8 4 -17 9 -20 5 -4 7 3 4 14 -6 23 -13 26 -13 6z"/>
<path d="M6549 2683 c13 -10 43 -28 65 -41 23 -13 30 -15 17 -5 -13 10 -43 28
-65 41 -23 13 -30 15 -17 5z"/>
<path d="M9121 2657 c-13 -21 -12 -21 5 -5 10 10 16 20 13 22 -3 3 -11 -5 -18
-17z"/>
<path d="M6367 2649 c12 -15 73 -53 73 -46 0 2 -19 17 -42 32 -24 16 -38 22
-31 14z"/>
<path d="M9085 2631 c-6 -5 -53 -32 -105 -61 -52 -28 -86 -49 -75 -45 31 10
183 94 190 105 8 12 2 13 -10 1z"/>
<path d="M9430 2619 c-22 -18 -22 -19 -3 -10 12 6 25 16 28 21 9 15 3 12 -25
-11z"/>
<path d="M6651 2598 c0 -9 -4 -25 -7 -35 -5 -17 -5 -17 6 0 6 10 9 25 7 35 -4
15 -5 15 -6 0z"/>
<path d="M9231 2505 c-160 -92 -212 -126 -141 -90 57 29 310 176 310 181 0 6
6 9 -169 -91z"/>
<path d="M6490 2575 c0 -7 61 -37 66 -33 2 3 -12 12 -31 21 -19 9 -35 15 -35
12z"/>
<path d="M6180 2556 c0 -3 9 -10 20 -16 11 -6 20 -8 20 -6 0 3 -9 10 -20 16
-11 6 -20 8 -20 6z"/>
<path d="M6749 2543 c-13 -16 -12 -17 4 -4 9 7 17 15 17 17 0 8 -8 3 -21 -13z"/>
<path d="M6850 2535 c14 -8 30 -14 35 -14 6 0 -1 6 -15 14 -14 8 -29 14 -35
14 -5 0 1 -6 15 -14z"/>
<path d="M6583 2533 c9 -2 25 -2 35 0 9 3 1 5 -18 5 -19 0 -27 -2 -17 -5z"/>
<path d="M8610 2525 c-33 -19 -21 -19 21 0 19 8 27 14 19 14 -8 0 -26 -6 -40
-14z"/>
<path d="M6900 2515 c0 -8 102 -57 107 -51 3 3 -6 10 -21 15 -14 6 -40 18 -56
26 -17 9 -30 13 -30 10z"/>
<path d="M6280 2496 c0 -3 14 -12 30 -21 17 -9 30 -13 30 -11 0 3 -13 12 -30
21 -16 9 -30 13 -30 11z"/>
<path d="M8488 2469 c-32 -16 -58 -32 -58 -34 0 -5 119 52 129 61 13 12 -22
-1 -71 -27z"/>
<path d="M6355 2452 c12 -12 233 -132 243 -132 10 0 -38 28 -153 89 -55 30
-95 49 -90 43z"/>
<path d="M8700 2438 c-35 -29 -182 -97 -233 -108 l-42 -9 43 3 c58 5 277 114
261 130 -2 2 -15 -5 -29 -16z"/>
<path d="M6770 2446 c0 -3 9 -10 20 -16 11 -6 20 -8 20 -6 0 3 -9 10 -20 16
-11 6 -20 8 -20 6z"/>
<path d="M7058 2403 c5 -21 7 -23 10 -9 2 10 0 22 -6 28 -6 6 -7 0 -4 -19z"/>
<path d="M6820 2415 c0 -7 101 -57 106 -53 2 2 -21 16 -51 31 -30 15 -55 25
-55 22z"/>
<path d="M8908 2329 c-76 -38 -138 -71 -138 -74 0 -3 63 26 140 65 77 39 140
72 140 75 0 7 9 11 -142 -66z"/>
<path d="M7036 2355 c-11 -8 -15 -15 -9 -15 6 0 16 7 23 15 16 19 11 19 -14 0z"/>
<path d="M7225 2360 c27 -12 43 -12 25 0 -8 5 -22 9 -30 9 -10 0 -8 -3 5 -9z"/>
<path d="M6970 2340 c8 -5 20 -10 25 -10 6 0 3 5 -5 10 -8 5 -19 10 -25 10 -5
0 -3 -5 5 -10z"/>
<path d="M7290 2335 c14 -8 30 -14 35 -14 6 0 -1 6 -15 14 -14 8 -29 14 -35
14 -5 0 1 -6 15 -14z"/>
<path d="M8248 2343 c31 -6 56 -46 48 -78 -3 -13 -19 -31 -34 -39 -15 -9 -21
-15 -14 -16 19 0 62 46 62 68 0 29 -38 72 -63 71 -22 -2 -22 -2 1 -6z"/>
<path d="M8155 2319 c-22 -10 -29 -16 -16 -13 37 10 88 33 71 33 -8 0 -33 -9
-55 -20z"/>
<path d="M7132 2310 c0 -14 2 -19 5 -12 2 6 2 18 0 25 -3 6 -5 1 -5 -13z"/>
<path d="M6610 2315 c0 -2 18 -14 40 -25 22 -11 40 -18 40 -15 0 2 -18 14 -40
25 -22 11 -40 18 -40 15z"/>
<path d="M7350 2310 c8 -5 20 -10 25 -10 6 0 3 5 -5 10 -8 5 -19 10 -25 10 -5
0 -3 -5 5 -10z"/>
<path d="M9235 2292 c-16 -10 -97 -54 -180 -97 -160 -83 -163 -85 -149 -85 11
0 346 178 358 190 15 15 4 12 -29 -8z"/>
<path d="M8024 2266 c-39 -18 -75 -40 -80 -47 -6 -11 -5 -12 7 -2 9 7 49 28
90 47 41 19 70 35 64 35 -5 0 -42 -15 -81 -33z"/>
<path d="M7445 2267 c44 -25 55 -57 35 -99 -11 -22 -10 -22 4 -4 17 21 21 63
8 82 -8 12 -66 44 -79 44 -4 0 10 -10 32 -23z"/>
<path d="M7140 2275 c0 -7 61 -47 66 -42 3 2 -11 14 -31 25 -19 12 -35 20 -35
17z"/>
<path d="M6721 2256 c2 -2 15 -9 29 -15 24 -11 24 -11 6 3 -16 13 -49 24 -35
12z"/>
<path d="M8650 2200 c-52 -27 -90 -49 -85 -49 6 0 53 22 105 49 52 27 91 49
85 49 -5 0 -53 -22 -105 -49z"/>
<path d="M6787 2219 c7 -7 15 -10 18 -7 3 3 -2 9 -12 12 -14 6 -15 5 -6 -5z"/>
<path d="M7275 2200 c22 -10 54 -21 70 -25 17 -3 1 6 -35 19 -76 30 -93 32
-35 6z"/>
<path d="M8200 2200 c-8 -5 -10 -10 -5 -10 6 0 17 5 25 10 8 5 11 10 5 10 -5
0 -17 -5 -25 -10z"/>
<path d="M8150 2180 c-8 -5 -10 -10 -5 -10 6 0 17 5 25 10 8 5 11 10 5 10 -5
0 -17 -5 -25 -10z"/>
<path d="M8085 2155 c-25 -12 -26 -14 -5 -9 28 7 60 23 45 23 -5 0 -23 -6 -40
-14z"/>
<path d="M6526 2151 c11 -11 84 -42 84 -36 0 5 -80 45 -89 45 -3 0 -1 -4 5 -9z"/>
<path d="M7607 2142 c-24 -26 -21 -65 6 -88 22 -19 22 -19 5 2 -23 26 -23 62
-1 86 9 10 14 18 11 18 -3 0 -12 -8 -21 -18z"/>
<path d="M8000 2130 c-20 -6 -21 -8 -5 -8 11 0 29 3 40 8 25 11 -1 11 -35 0z"/>
<path d="M8490 2125 c-14 -8 -20 -14 -15 -14 6 0 21 6 35 14 14 8 21 14 15 14
-5 0 -21 -6 -35 -14z"/>
<path d="M7000 2115 c14 -8 30 -14 35 -14 6 0 -1 6 -15 14 -14 8 -29 14 -35
14 -5 0 1 -6 15 -14z"/>
<path d="M8420 2095 c-14 -8 -20 -14 -15 -14 6 0 21 6 35 14 14 8 21 14 15 14
-5 0 -21 -6 -35 -14z"/>
<path d="M6640 2095 c0 -7 241 -127 246 -123 2 2 -53 32 -121 66 -69 34 -125
60 -125 57z"/>
<path d="M7812 2072 c-11 -25 -11 -25 4 -10 9 9 15 21 13 27 -2 6 -10 -2 -17
-17z"/>
<path d="M8785 2061 c-44 -22 -77 -40 -74 -40 9 -1 159 69 159 74 0 7 3 8 -85
-34z"/>
<path d="M7160 2040 c41 -21 80 -39 85 -39 6 0 -24 18 -65 39 -41 21 -79 39
-85 39 -5 0 24 -18 65 -39z"/>
<path d="M8330 2055 c-25 -13 -40 -24 -35 -24 6 0 30 11 55 24 25 13 41 24 35
24 -5 0 -30 -11 -55 -24z"/>
<path d="M7750 2038 c-19 -5 -53 -8 -75 -5 -32 5 -36 3 -21 -5 21 -12 114 -4
130 12 11 11 13 12 -34 -2z"/>
<path d="M8240 2015 c-14 -8 -20 -14 -15 -14 6 0 21 6 35 14 14 8 21 14 15 14
-5 0 -21 -6 -35 -14z"/>
<path d="M8630 1990 c-30 -16 -50 -29 -45 -29 6 0 35 13 65 29 30 16 51 29 45
29 -5 0 -35 -13 -65 -29z"/>
<path d="M8180 1990 c-8 -5 -10 -10 -5 -10 6 0 17 5 25 10 8 5 11 10 5 10 -5
0 -17 -5 -25 -10z"/>
<path d="M7310 1971 c19 -10 46 -21 60 -25 14 -3 1 5 -29 19 -62 29 -83 33
-31 6z"/>
<path d="M8110 1960 c-8 -5 -10 -10 -5 -10 6 0 17 5 25 10 8 5 11 10 5 10 -5
0 -17 -5 -25 -10z"/>
<path d="M8462 1917 c-50 -22 -90 -42 -88 -44 3 -4 185 73 194 82 12 11 -18 1
-106 -38z"/>
<path d="M7000 1915 c36 -19 70 -34 75 -34 6 0 -19 15 -55 34 -36 19 -69 34
-75 34 -5 0 19 -15 55 -34z"/>
<path d="M8050 1935 c-14 -8 -20 -14 -15 -14 6 0 21 6 35 14 14 8 21 14 15 14
-5 0 -21 -6 -35 -14z"/>
<path d="M7450 1910 c8 -5 20 -10 25 -10 6 0 3 5 -5 10 -8 5 -19 10 -25 10 -5
0 -3 -5 5 -10z"/>
<path d="M7917 1883 c-48 -19 -86 -37 -84 -39 4 -4 178 63 186 72 11 10 -21 0
-102 -33z"/>
<path d="M7100 1871 c27 -17 322 -142 326 -138 2 2 -68 35 -157 73 -167 71
-195 82 -169 65z"/>
<path d="M7560 1860 c19 -11 40 -19 45 -19 6 0 -6 8 -25 19 -19 11 -39 19 -45
19 -5 0 6 -8 25 -19z"/>
<path d="M8325 1859 c-11 -5 -45 -20 -75 -34 -30 -14 -44 -22 -30 -19 32 8
148 62 135 62 -5 1 -19 -4 -30 -9z"/>
<path d="M7630 1830 c8 -5 20 -10 25 -10 6 0 3 5 -5 10 -8 5 -19 10 -25 10 -5
0 -3 -5 5 -10z"/>
<path d="M7693 1813 c15 -2 37 -2 50 0 12 2 0 4 -28 4 -27 0 -38 -2 -22 -4z"/>
<path d="M8160 1790 c-8 -5 -10 -10 -5 -10 6 0 17 5 25 10 8 5 11 10 5 10 -5
0 -17 -5 -25 -10z"/>
<path d="M8075 1759 c-54 -22 -75 -36 -35 -24 37 12 107 44 95 44 -5 0 -32 -9
-60 -20z"/>
<path d="M7460 1716 c14 -7 36 -16 50 -20 14 -3 7 3 -15 13 -45 22 -73 27 -35
7z"/>
<path d="M7950 1710 c-8 -5 -10 -10 -5 -10 6 0 17 5 25 10 8 5 11 10 5 10 -5
0 -17 -5 -25 -10z"/>
<path d="M7840 1673 c-65 -24 -96 -42 -50 -28 51 15 145 54 130 53 -8 0 -44
-11 -80 -25z"/>
<path d="M7541 1686 c19 -19 140 -56 178 -55 l46 2 -55 7 c-30 3 -79 16 -108
28 -50 21 -70 27 -61 18z"/>
</g>
</svg>
